HIERARCHY
ROOT Hips
{
  OFFSET 267.745 86.9975 -272.335
  CHANNELS 6 Xposition Yposition Zposition Zrotation Xrotation Yrotation
  JOINT LeftUpLeg
  {
    OFFSET 8.64259 1.95398 -2.38835
    CHANNELS 3 Zrotation Xrotation Yrotation
    JOINT LeftLeg
    {
      OFFSET 43.7702 0 0
      CHANNELS 3 Zrotation Xrotation Yrotation
      JOINT LeftFoot
      {
        OFFSET 40.6238 0 0
        CHANNELS 3 Zrotation Xrotation Yrotation
        JOINT LeftToeBase
        {
          OFFSET 12.7242 0 0
          CHANNELS 3 Zrotation Xrotation Yrotation
          End Site
          {
            OFFSET 0 0 0
          }
        }
      }
    }
  }
  JOINT RightUpLeg
  {
    OFFSET -8.2249 1.95398 -2.59336
    CHANNELS 3 Zrotation Xrotation Yrotation
    JOINT RightLeg
    {
      OFFSET 43.5653 0 0
      CHANNELS 3 Zrotation Xrotation Yrotation
      JOINT RightFoot
      {
        OFFSET 40.6238 0 0
        CHANNELS 3 Zrotation Xrotation Yrotation
        JOINT RightToeBase
        {
          OFFSET 12.7242 0 0
          CHANNELS 3 Zrotation Xrotation Yrotation
          End Site
          {
            OFFSET 0 0 0
          }
        }
      }
    }
  }
  JOINT Spine
  {
    OFFSET 0.165834 0.87714 6.61349
    CHANNELS 3 Zrotation Xrotation Yrotation
    JOINT Spine1
    {
      OFFSET 7.38963 1.71661e-005 0
      CHANNELS 3 Zrotation Xrotation Yrotation
      JOINT Spine2
      {
        OFFSET 11.9445 1.14441e-005 0
        CHANNELS 3 Zrotation Xrotation Yrotation
        JOINT Spine3
        {
          OFFSET 14.7254 4.19617e-005 0
          CHANNELS 3 Zrotation Xrotation Yrotation
          JOINT Spine4
          {
            OFFSET 10.9679 0 0
            CHANNELS 3 Zrotation Xrotation Yrotation
            JOINT RightShoulder
            {
              OFFSET 2.46616 -1.6653 3.69651
              CHANNELS 3 Zrotation Xrotation Yrotation
              JOINT RightArm
              {
                OFFSET 13.0012 0 0
                CHANNELS 3 Zrotation Xrotation Yrotation
                JOINT RightForeArm
                {
                  OFFSET 28.7848 1.52588e-005 0
                  CHANNELS 3 Zrotation Xrotation Yrotation
                  JOINT RightHand
                  {
                    OFFSET 26.5688 1.52588e-005 0
                    CHANNELS 3 Zrotation Xrotation Yrotation
                    End Site
                    {
                      OFFSET 0 0 0
                    }
                  }
                }
              }
            }
            JOINT LeftShoulder
            {
              OFFSET 2.38034 -1.29275 -3.7523
              CHANNELS 3 Zrotation Xrotation Yrotation
              JOINT LeftArm
              {
                OFFSET 16.3182 6.10352e-005 0
                CHANNELS 3 Zrotation Xrotation Yrotation
                JOINT LeftForeArm
                {
                  OFFSET 27.0901 0 0
                  CHANNELS 3 Zrotation Xrotation Yrotation
                  JOINT LeftHand
                  {
                    OFFSET 24.5451 1.52588e-005 0
                    CHANNELS 3 Zrotation Xrotation Yrotation
                    End Site
                    {
                      OFFSET 0 0 0
                    }
                  }
                }
              }
            }
            JOINT Neck
            {
              OFFSET 5.0226 -0.0266342 0
              CHANNELS 3 Zrotation Xrotation Yrotation
              JOINT Head
              {
                OFFSET 6.69364 2.86102e-005 0
                CHANNELS 3 Zrotation Xrotation Yrotation
                End Site
                {
                  OFFSET 0 0 0
                }
              }
            }
          }
        }
      }
    }
  }
}
MOTION
Frames:	11
Frame Time:	0.0416667
-306.621 62.2326 341.449 -95.6789 -40.5391 -90.2456 -178.462 36.553 91.1225 -110.982 12.5589 -3.83113 71.515 12.9369 29.0657 21.9066 -11.2637 64.2471 -175.835 63.387 99.0953 -98.6965 -32.8014 -0.707573 50.3175 10.0705 -12.1495 171.185 2.51701 29.8831 -1.11551 5.00411 -91.2711 16.8317 -2.84989 -2.07832 5.16236 -2.93858 -1.95086 -17.3746 -2.09378 -2.83856 2.63804 -2.09378 -2.83857 43.3809 -50.1601 -164.718 4.48405 26.4819 92.9864 148.329 -16.4774 -57.8173 2.95366 -1.88717 -60.0962 -131.285 -79.8438 38.6832 -5.47529 -26.3761 30.0554 -170.657 75.7371 179.948 42.1587 -4.68437 -15.561 -77.2558 23.8235 13.834 44.5859 49.558 45.8899 
-306.749 62.2477 341.597 -95.6888 -40.5367 -90.2355 -178.563 36.8438 91.2321 -110.952 12.5753 -3.85714 71.3698 13.0871 28.9798 20.6461 -12.9539 68.6667 -175.678 63.0566 98.8846 -98.7868 -32.7883 -0.690011 52.6924 7.95436 -12.0445 167.01 2.91603 30.3008 -1.11007 5.00727 -91.2586 16.8289 -2.83242 -2.05528 5.15963 -2.92011 -1.92861 -17.3775 -2.08402 -2.81135 2.63514 -2.08404 -2.81135 43.4391 -50.1394 -164.665 4.64261 26.6103 92.914 148.324 -16.4741 -57.8261 2.94744 -1.88649 -60.1522 -131.068 -79.7174 38.8512 -5.37137 -26.2103 29.9422 -170.786 74.8998 179.95 42.3893 -4.60489 -15.3061 -77.228 23.9247 13.7919 44.8472 49.6205 45.6373 
-307.129 62.2363 342.038 -95.7183 -40.5296 -90.2078 -178.85 37.6759 91.5425 -110.954 12.3233 -3.92229 71.0958 13.6029 28.4423 16.7435 -20.5701 83.7976 -175.178 62.0824 98.2117 -98.8663 -32.8037 -0.641674 59.0073 2.35719 -11.2972 155.115 2.23317 30.6142 -1.09386 5.0142 -91.2213 16.8209 -2.78121 -1.98777 5.15157 -2.866 -1.86342 -17.386 -2.05545 -2.7316 2.62668 -2.05545 -2.7316 43.6048 -50.0836 -164.512 5.10548 26.9805 92.6976 148.305 -16.4656 -57.8545 2.93061 -1.88478 -60.3147 -130.466 -79.3506 39.3114 -5.06627 -25.7391 29.627 -171.15 72.6745 179.957 42.9935 -4.39628 -14.6497 -77.142 24.2199 13.6618 45.602 49.7952 44.9068 
-307.763 62.0747 342.773 -95.7683 -40.5183 -90.1666 -179.302 38.9953 92.0295 -111.034 13.4497 -4.03522 70.4842 13.8754 29.0787 11.7216 -38.0895 112.603 -174.411 60.6127 97.153 -98.5409 -32.9095 -0.569878 67.423 -4.78416 -9.21507 136.485 -1.31748 28.6897 -1.06739 5.02207 -91.1596 16.8076 -2.69749 -1.87793 5.13823 -2.77751 -1.75737 -17.4 -2.00856 -2.60171 2.61272 -2.00858 -2.60172 43.863 -50.0059 -164.267 5.8558 27.5681 92.3322 148.274 -16.452 -57.905 2.90637 -1.88249 -60.578 -129.575 -78.7592 39.9735 -4.56699 -25.0061 29.1507 -171.616 69.6462 179.865 43.8169 -4.13334 -13.8336 -76.9866 24.6995 13.4311 46.81 50.0566 43.7343 
-308.638 61.6917 343.784 -95.8408 -40.5039 -90.1163 -179.918 40.7634 92.6961 -111.355 14.6716 -4.16251 69.8856 14.2113 29.6426 -4.14428 -67.9622 127.5 -173.687 59.0187 96.0784 -97.6011 -33.0272 -0.480987 75.9446 -11.2724 -5.83619 113.127 -5.75542 23.323 -1.0306 5.03303 -91.075 16.7886 -2.58159 -1.72745 5.11926 -2.65511 -1.61214 -17.4196 -1.9432 -2.4234 2.59301 -1.94322 -2.4234 44.1976 -49.9229 -163.936 6.88088 28.3479 91.8067 148.232 -16.4333 -57.9801 2.87457 -1.87989 -60.9403 -128.501 -77.9556 40.7373 -3.87813 -24.0579 28.5564 -173.554 66.5297 -178.792 44.754 -3.92964 -13.1592 -76.7437 25.3567 13.0794 48.435 50.373 42.1487 
-309.722 61.1193 345.029 -95.938 -40.4872 -90.061 179.279 42.9315 93.5678 -111.83 15.9897 -4.29479 69.2138 14.4919 30.1336 -137.81 -29.0784 11.2941 -173.276 57.6423 95.3392 -96.1466 -32.991 -0.381104 83.2363 -15.9393 -1.85143 90.0447 -7.92767 16.3304 -0.983123 5.04727 -90.9682 16.7636 -2.43323 -1.53771 5.09413 -2.49855 -1.42911 -17.4455 -1.85869 -2.19789 2.56714 -1.85869 -2.19789 44.5921 -49.8536 -163.523 8.17169 29.2936 91.1056 148.181 -16.4095 -58.0823 2.83567 -1.87715 -61.4022 -127.334 -76.9491 41.5141 -3.00517 -22.9428 27.8859 -176.825 63.8511 -176.025 45.7853 -3.90968 -12.9038 -76.3894 26.1861 12.5801 50.4409 50.709 40.1772 
-310.975 60.4276 346.466 -96.0626 -40.469 -90.0048 178.264 45.4262 94.671 -112.31 17.364 -4.4257 68.353 14.6163 30.5179 66.4881 74.4638 159.169 -173.25 56.6042 95.0502 -94.3743 -32.6865 -0.277637 88.7963 -18.7398 2.07676 72.0145 -7.57672 10.6578 -0.924405 5.06545 -90.8397 16.7317 -2.25163 -1.31002 5.06215 -2.30712 -1.20962 -17.4781 -1.75388 -1.92618 2.53449 -1.7539 -1.92618 45.0298 -49.8184 -163.035 9.72101 30.3769 90.2105 148.125 -16.3799 -58.2135 2.79017 -1.87444 -61.9669 -126.147 -75.7476 42.2343 -1.95812 -21.712 27.1781 179.91 61.9263 -173.255 46.9392 -4.17639 -13.258 -75.8948 27.1811 11.9006 52.7852 51.0262 37.8509 
-312.357 59.6701 348.058 -96.2172 -40.4494 -89.9522 177.012 48.1564 96.0238 -112.669 18.7621 -4.54974 67.2301 14.5039 30.7785 42.6523 13.4587 -170.671 -173.561 55.8582 95.1647 -92.4204 -32.0893 -0.179233 92.7044 -20.124 5.63028 59.5378 -6.26552 7.09881 -0.853774 5.08695 -90.6901 16.6922 -2.03576 -1.04579 5.0225 -2.07982 -0.955151 -17.5182 -1.62738 -1.60932 2.49446 -1.62738 -1.60932 45.4928 -49.8392 -162.475 11.5213 31.5665 89.1037 148.069 -16.3429 -58.375 2.73865 -1.87206 -62.6389 -124.991 -74.3587 42.8474 -0.754623 -20.4191 26.4692 176.5 60.9376 -170.348 48.2268 -4.78877 -14.2915 -75.2265 28.3312 11.0021 55.4129 51.2847 35.2121 
-313.831 58.874 349.771 -96.4041 -40.4281 -89.9079 175.504 51.0237 97.6389 -112.828 20.1521 -4.66086 65.8334 14.1073 30.9034 42.2496 -10.2656 -164.745 -174.131 55.3068 95.5892 -90.3417 -31.233 -0.0941784 95.2589 -20.5562 8.76777 50.9933 -4.91661 5.03186 -0.770432 5.11257 -90.5203 16.6443 -1.78465 -0.746687 4.97438 -1.81578 -0.667405 -17.5663 -1.47775 -1.2486 2.44635 -1.47774 -1.2486 45.9631 -49.938 -161.849 13.5636 32.8279 87.7696 148.017 -16.2954 -58.5672 2.6821 -1.87057 -63.4242 -123.898 -72.7913 43.322 0.579792 -19.1147 25.79 172.796 60.8774 -167.19 49.5954 -5.75105 -15.9547 -74.3492 29.6201 9.84309 58.2545 51.4472 32.3169 
-315.364 58.0529 351.575 -96.625 -40.404 -89.8763 173.725 53.9295 99.5241 -112.743 21.5322 -4.75335 64.1884 13.3952 30.9097 43.5302 -24.2853 -160.072 -174.89 54.8636 96.2387 -88.1537 -30.1692 -0.0292588 96.7477 -20.3698 11.5488 44.9906 -3.77725 3.85119 -0.673925 5.14259 -90.3313 16.5873 -1.49796 -0.414731 4.91719 -1.51476 -0.348395 -17.623 -1.30406 -0.845817 2.38966 -1.30405 -0.845821 46.4227 -50.1345 -161.166 15.8366 34.1236 86.1973 147.978 -16.2328 -58.7895 2.62221 -1.87084 -64.3286 -122.884 -71.0571 43.6431 2.01404 -17.8414 25.1659 168.665 61.6094 -163.685 50.9307 -7.01823 -18.124 -65.5571 31.3203 3.27387 9.77645 44.3107 78.7433 
-316.927 57.2169 353.435 -96.8805 -40.3753 -89.8624 171.674 56.7743 101.674 -112.466 22.1213 -4.79427 62.502 12.7327 30.1112 45.4665 -34.0099 -155.736 -175.78 54.4605 97.0431 -85.8556 -28.953 0.0104748 97.4059 -19.7947 14.0489 40.637 -2.86907 3.18163 -0.564618 5.17667 -90.1244 16.5213 -1.17682 -0.0523446 4.85087 -1.17796 -0.000506329 -17.6882 -1.10667 -0.403649 2.32446 -1.10666 -0.403652 46.8515 -50.4453 -160.438 18.3232 35.4122 84.3856 147.965 -16.148 -59.0401 2.56194 -1.87449 -65.3567 -121.957 -69.1752 43.8078 3.5146 -16.6325 24.6194 164.01 62.9203 -159.753 52.091 -8.504 -20.6389 -31.1071 31.2998 -20.8494 -99.5091 -1.36669 22.2801 
